<?xml version="1.0" encoding="UTF-8"?>
<?xml-stylesheet type="text/css" href="svg.css" ?>
<svg class="logo" id="Layer_1" data-name="Layer 1" xmlns="http://www.w3.org/2000/svg" viewBox="0 0 475.56 117.17">
  <g>
    <path d="m0,85.88v-1.21c7.64-1.09,9.7-2.18,9.7-14.31v-22.08c0-6.31.97-13.83-8.25-13.83v-1.21l17.71-2.55h.36s-.12,22.8-.12,30.2c0,4.61,0,10.79.12,14.92.12,7.88,4.37,8.25,8.61,8.85v1.21H0Z"/>
    <path d="m60.28,85.88h-27.78v-1.21c6.19-.73,9.1-2.06,9.1-14.31,0-6.43.12-17.22.12-24.74,0-4.61-.97-11.04-8.85-11.04v-1.21l16.98-2.67h.36l1.33,9.95c3.15-5.34,9.58-9.34,18.07-9.34,9.1,0,17.71,3.52,17.71,12.86v29.96c0,10.07,4.85,9.95,8.98,10.67v1.09h-28.38v-1.33c4.25-.36,9.58-.61,9.58-10.67,0-10.67,0-14.68-.12-25.59-.12-9.22-3.15-14.56-11.52-14.56-5.46,0-11.4,3.15-13.34,11.52-.85,3.76-1.21,8.25-1.21,15.65,0,4.61.12,10.67.24,14.8.12,7.28,4.12,8.25,8.73,8.98v1.21Z"/>
    <path d="m113.16,99.58c-.12-2.43-1.7-4-4.61-4s-5.46,2.79-5.46,6.91c0,6.79,7.04,12.74,18.68,12.74s20.01-7.28,20.01-16.01c0-6.43-4.25-10.79-11.16-11.52-6.91-.73-8.01-.12-15.04-.97-6.67-.73-12.74-3.76-12.74-10.67,0-6.55,6.19-10.07,12.86-10.55-7.03-2.67-12.73-8.37-12.73-16.25,0-10.07,8.61-17.83,19.65-17.83,4.73,0,9.46,1.58,12.62,4.37,3.03-2.91,6.55-4.37,9.95-4.37,5.94,0,8.01,3.03,8.01,4.97s-1.21,3.88-3.52,3.88c-2.43,0-3.4-1.46-4.37-3.03-.85-1.21-2.06-2.67-4.25-2.67-2.43,0-3.52.97-4.85,2.06,3.4,3.4,5.58,7.88,5.58,13.1,0,10.67-10.55,17.22-18.8,17.22-1.33,0-2.67-.12-4.12-.49-7.16.36-10.07,3.03-10.07,6.31,0,2.91,1.7,4.49,6.06,4.85,4.49.49,10.19.12,16.62.49,12.61.61,18.92,8.25,18.92,17.59,0,12.61-11.52,21.47-27.65,21.47-13.71,0-24.86-4.97-24.86-15.89,0-6.43,5.34-10.8,10.19-10.8s6.55,2.91,6.55,4.85c0,2.18-.49,3.4-.97,4.25h-.49Zm19.04-50.94c0-8.13-2.67-15.65-9.82-15.65-6.43,0-9.95,6.79-9.95,16.01s3.15,16.37,10.55,16.37c6.55,0,9.22-6.91,9.22-16.74Z"/>
    <path d="m202.91,72.53c-.49,6.19-6.79,15.16-21.23,15.16-18.56,0-28.38-11.89-28.38-27.29,0-14.56,9.22-28.99,27.53-28.99,13.83,0,21.23,9.22,21.95,19.16h-37.48c-.36,2.55-.49,5.34-.49,8.37,0,20.01,12.49,24.99,20.13,24.99,9.95,0,15.16-5.58,16.5-11.77l1.46.36Zm-10.43-23.89c-.24-7.88-4.49-15.65-12.13-15.65s-12.86,5.82-14.8,15.65h26.93Z"/>
    <path d="m234.69,85.88h-27.78v-1.21c6.19-.73,9.1-2.06,9.1-14.31,0-6.43.12-17.22.12-24.74,0-4.61-.97-11.04-8.85-11.04v-1.21l16.98-2.67h.36l1.33,9.95c3.15-5.34,9.58-9.34,18.07-9.34,9.1,0,17.71,3.52,17.71,12.86v29.96c0,10.07,4.85,9.95,8.98,10.67v1.09h-28.38v-1.33c4.25-.36,9.58-.61,9.58-10.67,0-10.67,0-14.68-.12-25.59-.12-9.22-3.15-14.56-11.52-14.56-5.46,0-11.4,3.15-13.34,11.52-.85,3.76-1.21,8.25-1.21,15.65,0,4.61.12,10.67.24,14.8.12,7.28,4.12,8.25,8.73,8.98v1.21Z"/>
    <path d="m274.1,85.88v-1.21c7.64-1.09,9.7-2.18,9.7-14.31v-22.08c0-6.31.97-13.83-8.25-13.83v-1.21l17.71-2.55h.36s-.12,22.8-.12,30.2c0,4.61,0,10.79.12,14.92.12,7.88,4.37,8.25,8.61,8.85v1.21h-28.14Z"/>
    <path d="m336.32,87.69c-16.62,0-29.47-13.34-29.47-28.26,0-14.07,12.25-28.02,29.47-28.02,18.07,0,29.35,13.58,29.35,28.14,0,16.74-15.65,28.14-29.35,28.14Zm17.83-28.14c0-14.68-7.52-26.44-17.83-26.44-12.62,0-17.95,12.49-17.95,26.32,0,14.56,7.52,26.44,17.95,26.44,12.98,0,17.83-13.71,17.83-26.32Z"/>
    <path d="m415.4,87.21h-.36l-.97-8.37c-4,5.7-10.43,8.85-18.92,8.85-9.1,0-16.37-4.12-16.37-13.71v-30.57c0-8.49-4.73-8.49-8.85-9.34v-1.09l19.04-.85c-.24,9.1-.24,15.28-.24,27.17,0,4.12,0,6.79.24,12.37.37,8.73,5.58,13.1,11.16,13.1s11.28-2.67,13.1-10.19c.97-3.76,1.46-9.1,1.46-16.5,0-4.61-.12-10.55-.24-14.68-.12-7.64-4.61-8.61-8.86-9.34v-1.09l19.04-.85c-.12,3.15-.24,9.22-.24,16.62,0,8-.12,16.74-.12,22.32,0,7.52-.49,12.74,9.1,13.22v1.09l-17.95,1.82Z"/>
    <path d="m439.29,87.69l-1.09-18.8,1.21-.12c1.7,7.64,7.28,17.34,16.25,17.34,5.22,0,10.92-3.03,10.92-9.34,0-4.97-3.03-9.22-12.98-14.07-8.85-4.37-13.34-9.46-13.34-16.74s7.28-14.68,16.98-14.68c4.25,0,8.98,2.18,10.55,2.18,1.33,0,1.82-.85,2.3-1.82h1.09l1.09,15.65h-1.21c-2.06-5.7-5.82-14.31-13.95-14.31-5.94,0-9.34,4.73-9.34,8.01,0,5.46,2.67,8.98,12.37,13.34,10.07,4.61,15.4,9.34,15.4,17.83s-6.91,15.65-19.65,15.65c-6.43,0-10.67-2.91-12.62-2.91-1.33,0-2.3,1.21-3.15,2.79h-.85Z"/>
  </g>
  <path d="m278.03,4.62h0c-1.97,0-2.98.94-3.88,1.76-.86.79-1.6,1.48-3.15,1.48s-2.29-.68-3.15-1.48c-.9-.83-1.91-1.76-3.88-1.76s-2.98.94-3.88,1.76c-.86.79-1.6,1.48-3.15,1.48s-2.29-.68-3.15-1.48c-.9-.83-1.91-1.76-3.88-1.76s-2.98.94-3.88,1.76c-.86.79-1.6,1.48-3.14,1.48s-2.29-.68-3.14-1.48c-.89-.82-1.9-1.75-3.85-1.76,0,0,0,0,0,0h0s0,0-.01,0c0,0,0,0,0,0,0,0,0,0,0,0-1.95,0-2.96.94-3.85,1.76-.86.79-1.6,1.48-3.15,1.48s-2.29-.68-3.15-1.48c-.9-.83-1.91-1.76-3.88-1.76s-2.98.94-3.88,1.76c-.86.79-1.6,1.48-3.15,1.48s-2.29-.68-3.15-1.48c-.9-.83-1.91-1.76-3.88-1.76s-2.98.94-3.88,1.76c-.86.79-1.6,1.48-3.14,1.48s-2.29-.68-3.14-1.48c-.89-.82-1.9-1.75-3.85-1.76,0,0,0,0,0,0h0s0,0-.01,0c0,0,0,0,0,0,0,0,0,0,0,0-1.95,0-2.96.94-3.85,1.76-.86.79-1.6,1.48-3.15,1.48s-2.29-.68-3.15-1.48c-.9-.83-1.91-1.76-3.88-1.76s-2.98.94-3.88,1.76c-.86.79-1.6,1.48-3.15,1.48s-2.29-.68-3.15-1.48c-.9-.83-1.91-1.76-3.88-1.76s-2.98.94-3.88,1.76c-.86.79-1.6,1.48-3.14,1.48s-2.29-.68-3.14-1.48c-.9-.83-1.91-1.76-3.88-1.76-.02,0-.03.02-.04.02-.02,0-.03-.02-.04-.02h0c-1.97,0-2.98.94-3.88,1.76-.86.79-1.6,1.48-3.15,1.48s-2.29-.68-3.15-1.48c-.9-.83-1.91-1.76-3.88-1.76s-2.98.94-3.88,1.76c-.86.79-1.6,1.48-3.14,1.48s-2.29-.68-3.15-1.48c-.9-.83-1.91-1.76-3.88-1.76s-2.98.94-3.88,1.76c-.86.79-1.6,1.48-3.14,1.48s-2.29-.68-3.14-1.48c-.89-.82-1.9-1.75-3.85-1.76,0,0,0,0,0,0h0s0,0-.01,0c0,0,0,0,0,0,0,0,0,0,0,0-1.95,0-2.96.94-3.85,1.76-.86.79-1.6,1.48-3.15,1.48s-2.29-.68-3.15-1.48c-.9-.83-1.91-1.76-3.88-1.76s-2.98.94-3.88,1.76c-.86.79-1.6,1.48-3.14,1.48s-2.29-.68-3.15-1.48c-.9-.83-1.91-1.76-3.88-1.76s-2.98.94-3.88,1.76c-.86.79-1.6,1.48-3.14,1.48s-2.29-.68-3.14-1.48c-.89-.82-1.9-1.75-3.85-1.76,0,0,0,0,0,0h0s0,0-.01,0c0,0,0,0,0,0s0,0,0,0c-1.95,0-2.96.94-3.85,1.76-.86.79-1.6,1.48-3.15,1.48s-2.29-.68-3.15-1.48c-.9-.83-1.91-1.76-3.88-1.76s-2.98.94-3.88,1.76c-.86.79-1.6,1.48-3.14,1.48s-2.29-.68-3.15-1.48c-.9-.83-1.91-1.76-3.88-1.76s-2.98.94-3.88,1.76c-.86.79-1.6,1.48-3.14,1.48s-2.29-.68-3.14-1.48c-.9-.83-1.91-1.76-3.88-1.76-.3,0-.54.24-.54.54s.24.54.54.54c1.54,0,2.29.69,3.14,1.48.9.83,1.91,1.76,3.88,1.76s2.98-.94,3.88-1.76c.86-.79,1.6-1.48,3.15-1.48s2.29.69,3.15,1.48c.9.83,1.91,1.76,3.88,1.76s2.98-.94,3.88-1.76c.86-.79,1.6-1.48,3.15-1.48s2.29.69,3.15,1.48c.9.83,1.91,1.76,3.88,1.76s2.98-.94,3.88-1.76c.86-.79,1.6-1.47,3.13-1.48,1.54,0,2.28.69,3.14,1.48.9.83,1.91,1.76,3.88,1.76s2.98-.94,3.88-1.76c.86-.79,1.6-1.48,3.15-1.48s2.29.69,3.15,1.48c.9.83,1.91,1.76,3.88,1.76s2.98-.94,3.88-1.76c.86-.79,1.6-1.48,3.15-1.48s2.29.69,3.15,1.48c.9.83,1.91,1.76,3.88,1.76s2.98-.94,3.88-1.76c.86-.79,1.6-1.47,3.13-1.48,1.54,0,2.28.69,3.14,1.48.9.83,1.91,1.76,3.88,1.76s2.98-.94,3.88-1.76c.86-.79,1.6-1.48,3.15-1.48s2.29.69,3.15,1.48c.9.83,1.91,1.76,3.88,1.76s2.98-.94,3.88-1.76c.86-.79,1.6-1.48,3.15-1.48s2.29.69,3.15,1.48c.9.83,1.91,1.76,3.88,1.76s2.98-.94,3.88-1.76c.86-.79,1.6-1.48,3.15-1.48.02,0,.03-.02.04-.02.02,0,.03.02.04.02,1.54,0,2.29.69,3.14,1.48.9.83,1.91,1.76,3.88,1.76s2.98-.94,3.88-1.76c.86-.79,1.6-1.48,3.14-1.48s2.29.69,3.15,1.48c.9.83,1.91,1.76,3.88,1.76s2.98-.94,3.88-1.76c.86-.79,1.6-1.48,3.15-1.48s2.29.69,3.15,1.48c.9.83,1.91,1.76,3.88,1.76s2.98-.94,3.88-1.76c.86-.79,1.6-1.47,3.13-1.48,1.54,0,2.28.69,3.14,1.48.9.83,1.91,1.76,3.88,1.76s2.98-.94,3.88-1.76c.86-.79,1.6-1.48,3.14-1.48s2.29.69,3.15,1.48c.9.83,1.91,1.76,3.88,1.76s2.98-.94,3.88-1.76c.86-.79,1.6-1.48,3.15-1.48s2.29.69,3.15,1.48c.9.83,1.91,1.76,3.88,1.76s2.98-.94,3.88-1.76c.86-.79,1.6-1.47,3.13-1.48,1.54,0,2.28.69,3.14,1.48.9.83,1.91,1.76,3.88,1.76s2.98-.94,3.88-1.76c.86-.79,1.6-1.48,3.14-1.48s2.29.69,3.15,1.48c.9.83,1.91,1.76,3.88,1.76s2.98-.94,3.88-1.76c.86-.79,1.6-1.48,3.15-1.48s2.29.69,3.15,1.48c.9.83,1.91,1.76,3.88,1.76s2.98-.94,3.88-1.76c.86-.79,1.6-1.48,3.15-1.48.3,0,.54-.24.54-.54s-.24-.54-.54-.54Z"/>
  <path d="m8.97,5.58c0-3.03,2.67-5.58,5.7-5.58s5.46,2.55,5.46,5.58-2.43,5.7-5.46,5.7-5.7-2.55-5.7-5.7Z"/>
  <path d="m283.08,5.58c0-3.03,2.67-5.58,5.7-5.58s5.46,2.55,5.46,5.58-2.43,5.7-5.46,5.7-5.7-2.55-5.7-5.7Z"/>
</svg>