<svg xmlns="http://www.w3.org/2000/svg" xmlns:xlink="http://www.w3.org/1999/xlink" width="1920" height="570" viewBox="0 0 1920 570"><defs><clipPath id="a"><rect width="1920" height="570" transform="translate(1920 570) rotate(180)"/></clipPath></defs><g transform="translate(1920 570) rotate(180)" clip-path="url(#a)"><rect width="1920" height="570" fill="#fbf5ef"/></g><g clip-path="url(#a)"><path d="M.3,290a2.769,2.769,0,0,1-.1-.9A4.055,4.055,0,0,1,4.3,285a36.419,36.419,0,0,1,18.8,4.9,65.36,65.36,0,0,1,10.6,8.4c6.5,6,12.1,11.2,23.8,11.2s17.3-5.2,23.8-11.2a65.36,65.36,0,0,1,10.6-8.4,34.961,34.961,0,0,1,18.8-4.9,35.76,35.76,0,0,1,18.7,4.9,65.36,65.36,0,0,1,10.6,8.4c6.5,6,12.1,11.2,23.8,11.2s17.3-5.2,23.8-11.2a65.36,65.36,0,0,1,10.6-8.4,34.845,34.845,0,0,1,18.7-4.9,35.76,35.76,0,0,1,18.7,4.9,65.36,65.36,0,0,1,10.6,8.4c6.5,6,12.1,11.2,23.8,11.2s17.3-5.2,23.8-11.2a65.36,65.36,0,0,1,10.6-8.4,35.266,35.266,0,0,1,18.5-4.9h.4a35,35,0,0,1,18.5,4.9,65.36,65.36,0,0,1,10.6,8.4c6.5,6,12.1,11.2,23.8,11.2s17.3-5.2,23.8-11.2a65.36,65.36,0,0,1,10.6-8.4,34.961,34.961,0,0,1,18.8-4.9,35.76,35.76,0,0,1,18.7,4.9,65.36,65.36,0,0,1,10.6,8.4c6.5,6,12.1,11.2,23.8,11.2s17.3-5.2,23.8-11.2a65.361,65.361,0,0,1,10.6-8.4,34.845,34.845,0,0,1,18.7-4.9,35.76,35.76,0,0,1,18.7,4.9,65.36,65.36,0,0,1,10.6,8.4c6.5,6,12.1,11.2,23.8,11.2s17.3-5.2,23.8-11.2a65.36,65.36,0,0,1,10.6-8.4,35.266,35.266,0,0,1,18.5-4.9h.4a35,35,0,0,1,18.5,4.9,65.36,65.36,0,0,1,10.6,8.4c6.5,6,12.1,11.2,23.8,11.2s17.3-5.2,23.8-11.2a65.36,65.36,0,0,1,10.6-8.4,34.961,34.961,0,0,1,18.8-4.9,35.76,35.76,0,0,1,18.7,4.9,65.36,65.36,0,0,1,10.6,8.4c6.5,6,12.1,11.2,23.8,11.2s17.3-5.2,23.8-11.2a61.293,61.293,0,0,1,10.6-8.4,34.845,34.845,0,0,1,18.7-4.9,35.76,35.76,0,0,1,18.7,4.9,65.36,65.36,0,0,1,10.6,8.4c6.5,6,12.1,11.2,23.8,11.2s17.3-5.2,23.8-11.2a65.36,65.36,0,0,1,10.6-8.4,34.845,34.845,0,0,1,18.7-4.9c.1,0,.2.1.3.1s.2-.1.3-.1a36.419,36.419,0,0,1,18.8,4.9,65.36,65.36,0,0,1,10.6,8.4c6.5,6,12.1,11.2,23.8,11.2s17.3-5.2,23.8-11.2a65.36,65.36,0,0,1,10.6-8.4,34.961,34.961,0,0,1,18.8-4.9,35.759,35.759,0,0,1,18.7,4.9,65.36,65.36,0,0,1,10.6,8.4c6.5,6,12.1,11.2,23.8,11.2s17.3-5.2,23.8-11.2a61.293,61.293,0,0,1,10.6-8.4,34.845,34.845,0,0,1,18.7-4.9,35.759,35.759,0,0,1,18.7,4.9,65.36,65.36,0,0,1,10.6,8.4c6.5,6,12.1,11.2,23.8,11.2s17.3-5.2,23.8-11.2a65.36,65.36,0,0,1,10.6-8.4,35.267,35.267,0,0,1,18.5-4.9h.4a35,35,0,0,1,18.5,4.9,65.36,65.36,0,0,1,10.6,8.4c6.5,6,12.1,11.2,23.8,11.2s17.3-5.2,23.8-11.2a65.36,65.36,0,0,1,10.6-8.4,34.961,34.961,0,0,1,18.8-4.9,35.759,35.759,0,0,1,18.7,4.9,65.36,65.36,0,0,1,10.6,8.4c6.5,6,12.1,11.2,23.8,11.2s17.3-5.2,23.8-11.2a61.293,61.293,0,0,1,10.6-8.4,34.845,34.845,0,0,1,18.7-4.9,35.759,35.759,0,0,1,18.7,4.9,65.36,65.36,0,0,1,10.6,8.4c6.5,6,12.1,11.2,23.8,11.2s17.3-5.2,23.8-11.2a65.36,65.36,0,0,1,10.6-8.4,35.267,35.267,0,0,1,18.5-4.9h.4a35,35,0,0,1,18.5,4.9,65.36,65.36,0,0,1,10.6,8.4c6.5,6,12.1,11.2,23.8,11.2s17.3-5.2,23.8-11.2a65.36,65.36,0,0,1,10.6-8.4,34.961,34.961,0,0,1,18.8-4.9,35.759,35.759,0,0,1,18.7,4.9,65.36,65.36,0,0,1,10.6,8.4c6.5,6,12.1,11.2,23.8,11.2s17.3-5.2,23.8-11.2a65.36,65.36,0,0,1,10.6-8.4,34.845,34.845,0,0,1,18.7-4.9,35.759,35.759,0,0,1,18.7,4.9,65.36,65.36,0,0,1,10.6,8.4c6.5,6,12.1,11.2,23.8,11.2s17.3-5.2,23.8-11.2a65.36,65.36,0,0,1,10.6-8.4,34.845,34.845,0,0,1,18.7-4.9,4.055,4.055,0,0,1,4.1,4.1,5.068,5.068,0,0,1-.2,1.3V909H0V290Z" fill="#fff"/></g></svg>