  <svg
    xmlns="http://www.w3.org/2000/svg"
    xmlnsXlink="http://www.w3.org/1999/xlink"
    width="56"
    height="56"
    viewBox="0 0 56 56"
  >
    <defs>
      <clipPath id="clip-path">
        <path
          id="Path_27"
          data-name="Path 27"
          d="M0-227H56v-56H0Z"
          transform="translate(0 283)"
          fill="none"
        />
      </clipPath>
      <clipPath id="clip-path-2">
        <path
          id="Path_29"
          data-name="Path 29"
          d="M28-283A28,28,0,0,0,0-255H0a28,28,0,0,0,28,28h0a28,28,0,0,0,28-28h0A28,28,0,0,0,28-283Z"
          transform="translate(0 283)"
          fill="none"
        />
      </clipPath>
    </defs>
    <g id="Group_292" data-name="Group 292" transform="translate(0 283)">
      <g
        id="Group_39"
        data-name="Group 39"
        transform="translate(0 -283)"
        clipPath="url(#clip-path)"
      >
        <g id="Group_38" data-name="Group 38">
          <path
            id="Path_26"
            data-name="Path 26"
            d="M-227-113.5a28,28,0,0,1-28,28,28,28,0,0,1-28-28,28,28,0,0,1,28-28,28,28,0,0,1,28,28"
            transform="translate(283 141.5)"
            fill="#d44a1a"
          />
        </g>
      </g>
      <g
        id="Group_41"
        data-name="Group 41"
        transform="translate(0 -283)"
        clipPath="url(#clip-path-2)"
      >
        <g
          id="Group_40"
          data-name="Group 40"
          transform="translate(-106.347 26.315)"
        >
          <path
            id="Path_28"
            data-name="Path 28"
            d="M-1086.226,0h0a5.527,5.527,0,0,0-4.1,1.865,4.408,4.408,0,0,1-3.328,1.562,4.409,4.409,0,0,1-3.328-1.562,5.526,5.526,0,0,0-4.1-1.865,5.523,5.523,0,0,0-4.1,1.866,4.4,4.4,0,0,1-3.325,1.562,4.4,4.4,0,0,1-3.327-1.562,5.525,5.525,0,0,0-4.1-1.865,5.525,5.525,0,0,0-4.1,1.866,4.4,4.4,0,0,1-3.324,1.562,4.4,4.4,0,0,1-3.324-1.562A5.532,5.532,0,0,0-1130.761,0l-.009,0h-.022l-.008,0a5.534,5.534,0,0,0-4.073,1.864,4.409,4.409,0,0,1-3.328,1.562,4.407,4.407,0,0,1-3.328-1.562,5.528,5.528,0,0,0-4.1-1.865,5.523,5.523,0,0,0-4.1,1.866,4.4,4.4,0,0,1-3.325,1.562,4.4,4.4,0,0,1-3.327-1.562,5.526,5.526,0,0,0-4.1-1.865,5.524,5.524,0,0,0-4.1,1.866,4.4,4.4,0,0,1-3.325,1.562,4.4,4.4,0,0,1-3.324-1.562A5.532,5.532,0,0,0-1175.3,0l-.009,0h-.021l-.007,0a5.537,5.537,0,0,0-4.074,1.864,4.407,4.407,0,0,1-3.328,1.562,4.409,4.409,0,0,1-3.328-1.562,5.525,5.525,0,0,0-4.1-1.865,5.522,5.522,0,0,0-4.1,1.866,4.4,4.4,0,0,1-3.325,1.562,4.406,4.406,0,0,1-3.327-1.562,5.524,5.524,0,0,0-4.1-1.865,5.522,5.522,0,0,0-4.1,1.866,4.4,4.4,0,0,1-3.325,1.562,4.4,4.4,0,0,1-3.324-1.562,5.523,5.523,0,0,0-4.1-1.866c-.018,0-.029.018-.046.019s-.028-.019-.046-.019a5.527,5.527,0,0,0-4.1,1.865,4.408,4.408,0,0,1-3.328,1.562,4.407,4.407,0,0,1-3.328-1.562,5.528,5.528,0,0,0-4.1-1.865,5.523,5.523,0,0,0-4.1,1.866,4.4,4.4,0,0,1-3.325,1.562,4.406,4.406,0,0,1-3.327-1.562,5.524,5.524,0,0,0-4.1-1.865,5.523,5.523,0,0,0-4.1,1.866,4.4,4.4,0,0,1-3.325,1.562,4.4,4.4,0,0,1-3.324-1.562A5.533,5.533,0,0,0-1264.5,0l-.009,0h-.021l-.008,0a5.535,5.535,0,0,0-4.074,1.864,4.408,4.408,0,0,1-3.328,1.562,4.408,4.408,0,0,1-3.328-1.562,5.527,5.527,0,0,0-4.1-1.865,5.524,5.524,0,0,0-4.1,1.866,4.4,4.4,0,0,1-3.325,1.562,4.406,4.406,0,0,1-3.327-1.562,5.523,5.523,0,0,0-4.1-1.865,5.525,5.525,0,0,0-4.1,1.866,4.4,4.4,0,0,1-3.324,1.562,4.4,4.4,0,0,1-3.324-1.562A5.533,5.533,0,0,0-1309.048,0l-.009,0h-.021l-.007,0a5.535,5.535,0,0,0-4.074,1.864,4.408,4.408,0,0,1-3.328,1.562,4.407,4.407,0,0,1-3.328-1.562,5.527,5.527,0,0,0-4.1-1.865,5.523,5.523,0,0,0-4.1,1.866,4.4,4.4,0,0,1-3.325,1.562,4.406,4.406,0,0,1-3.328-1.562,5.524,5.524,0,0,0-4.1-1.865,5.523,5.523,0,0,0-4.1,1.866,4.4,4.4,0,0,1-3.324,1.562,4.4,4.4,0,0,1-3.324-1.562,5.524,5.524,0,0,0-4.1-1.866.572.572,0,0,0-.572.572.571.571,0,0,0,.572.571,4.4,4.4,0,0,1,3.324,1.562,5.523,5.523,0,0,0,4.1,1.865,5.526,5.526,0,0,0,4.1-1.865,4.4,4.4,0,0,1,3.325-1.563,4.4,4.4,0,0,1,3.326,1.562,5.527,5.527,0,0,0,4.1,1.866,5.526,5.526,0,0,0,4.1-1.865,4.4,4.4,0,0,1,3.325-1.563,4.408,4.408,0,0,1,3.328,1.563,5.529,5.529,0,0,0,4.1,1.865,5.528,5.528,0,0,0,4.1-1.865,4.413,4.413,0,0,1,3.314-1.562,4.405,4.405,0,0,1,3.317,1.562,5.522,5.522,0,0,0,4.1,1.865,5.525,5.525,0,0,0,4.1-1.865,4.4,4.4,0,0,1,3.325-1.563A4.4,4.4,0,0,1-1290.9,2.7a5.527,5.527,0,0,0,4.1,1.866,5.526,5.526,0,0,0,4.1-1.865,4.4,4.4,0,0,1,3.326-1.563,4.409,4.409,0,0,1,3.328,1.563,5.526,5.526,0,0,0,4.1,1.865,5.526,5.526,0,0,0,4.1-1.865,4.413,4.413,0,0,1,3.314-1.562,4.4,4.4,0,0,1,3.318,1.562,5.522,5.522,0,0,0,4.1,1.865,5.526,5.526,0,0,0,4.1-1.865,4.4,4.4,0,0,1,3.325-1.563A4.4,4.4,0,0,1-1246.36,2.7a5.527,5.527,0,0,0,4.1,1.866,5.526,5.526,0,0,0,4.1-1.865,4.4,4.4,0,0,1,3.325-1.563,4.409,4.409,0,0,1,3.328,1.563,5.527,5.527,0,0,0,4.1,1.865,5.526,5.526,0,0,0,4.1-1.865,4.41,4.41,0,0,1,3.328-1.563c.018,0,.028-.017.046-.019s.028.019.047.019a4.4,4.4,0,0,1,3.324,1.562,5.522,5.522,0,0,0,4.1,1.865,5.526,5.526,0,0,0,4.1-1.865,4.4,4.4,0,0,1,3.325-1.563A4.4,4.4,0,0,1-1201.7,2.7a5.528,5.528,0,0,0,4.1,1.866,5.527,5.527,0,0,0,4.1-1.865,4.4,4.4,0,0,1,3.325-1.563,4.409,4.409,0,0,1,3.328,1.563,5.527,5.527,0,0,0,4.1,1.865,5.526,5.526,0,0,0,4.1-1.865,4.413,4.413,0,0,1,3.314-1.562,4.4,4.4,0,0,1,3.318,1.562,5.522,5.522,0,0,0,4.1,1.865,5.526,5.526,0,0,0,4.1-1.865,4.4,4.4,0,0,1,3.325-1.563A4.4,4.4,0,0,1-1157.16,2.7a5.529,5.529,0,0,0,4.1,1.866,5.526,5.526,0,0,0,4.1-1.865,4.4,4.4,0,0,1,3.325-1.563,4.409,4.409,0,0,1,3.328,1.563,5.527,5.527,0,0,0,4.1,1.865,5.528,5.528,0,0,0,4.1-1.865,4.411,4.411,0,0,1,3.313-1.562,4.4,4.4,0,0,1,3.317,1.562,5.524,5.524,0,0,0,4.1,1.865,5.526,5.526,0,0,0,4.1-1.865,4.4,4.4,0,0,1,3.325-1.563,4.406,4.406,0,0,1,3.326,1.562,5.526,5.526,0,0,0,4.1,1.866,5.525,5.525,0,0,0,4.1-1.865,4.4,4.4,0,0,1,3.325-1.563,4.408,4.408,0,0,1,3.328,1.563,5.528,5.528,0,0,0,4.1,1.865,5.528,5.528,0,0,0,4.1-1.865,4.409,4.409,0,0,1,3.328-1.563.571.571,0,0,0,.571-.571.571.571,0,0,0-.571-.571"
            transform="translate(1354.194)"
            fill="#fff"
          />
        </g>
      </g>
    </g>
  </svg>