<svg xmlns="http://www.w3.org/2000/svg" xmlns:xlink="http://www.w3.org/1999/xlink" width="260.97" height="37.614" viewBox="0 0 260.97 37.614"><defs><clipPath id="a"><path d="M0,0H260.97V-37.614H0Z" fill="none"/></clipPath></defs><g transform="translate(0 37.614)"><g clip-path="url(#a)"><g transform="translate(247.607 -0.261)"><path d="M0,0C6.5,0,13.1-3.4,13.1-11.039c0-6.448-5.158-9.027-10.213-10.575L-.825-22.8c-3.3-.929-3.508-2.528-3.508-3.25,0-1.96,1.651-3.663,4.178-3.663A3.722,3.722,0,0,1,3.92-25.792h8.1C12.019-32.705,6.809-36.78,0-36.78c-7.067,0-12.535,4.488-12.535,10.885,0,3.353,1.5,8.15,9.337,10.265l4.23,1.29c3.146,1.031,3.92,2.321,3.92,3.714,0,2.321-2.012,3.662-4.643,3.662-2.785,0-5.055-1.754-5.055-4.023h-8.1C-12.845-4.436-7.583,0,0,0" fill="#303030"/></g><g transform="translate(247.607 -0.261)"><path d="M0,0C6.5,0,13.1-3.4,13.1-11.039c0-6.448-5.158-9.027-10.213-10.575L-.825-22.8c-3.3-.929-3.508-2.528-3.508-3.25,0-1.96,1.651-3.663,4.178-3.663A3.722,3.722,0,0,1,3.92-25.792h8.1C12.019-32.705,6.809-36.78,0-36.78c-7.067,0-12.535,4.488-12.535,10.885,0,3.353,1.5,8.15,9.337,10.265l4.23,1.29c3.146,1.031,3.92,2.321,3.92,3.714,0,2.321-2.012,3.662-4.643,3.662-2.785,0-5.055-1.754-5.055-4.023h-8.1C-12.845-4.436-7.583,0,0,0Z" fill="none"/></g><path d="M1.579-36.983H0V-.723H1.579Zm0,36.26M34.055-4.565,13.9-36.983H11.215V-.723h2.368V-33.089L33.791-.723h2.632v-36.26H34.055ZM61.762-.092c9.894,0,16.84-5.946,17-18.208H64.025v3.1H74.971c-.316,7.209-5.842,11.84-13.209,11.84-8.368,0-14.841-7-14.841-15.419s6.473-15.578,14.841-15.578a14.942,14.942,0,0,1,9.262,3.316L73.34-33.4a18.03,18.03,0,0,0-11.578-4.21,18.545,18.545,0,0,0-18.314,18.84A18.442,18.442,0,0,0,61.762-.092M89.269-16.3h14.525v-4.473H89.269V-32.562H105.9v-4.421H84.533V-.723h21.893V-5.144H89.269ZM133.3-10.775,117.613-36.983h-5.262V-.723h5.42V-27.142L133.612-.723h5.1v-36.26H133.3Zm20.251-26.208h-6.42V-.723h6.42Zm0,36.26,24.228.631a18.62,18.62,0,0,0,18.472-18.735,18.632,18.632,0,0,0-18.472-18.787,18.553,18.553,0,0,0-18.419,18.787A18.542,18.542,0,0,0,177.775-.092m0-6.894c-6.525,0-11.1-5.315-11.1-11.841s4.579-11.893,11.1-11.893c6.473,0,11.1,5.368,11.1,11.893s-4.631,11.841-11.1,11.841M215.508-.092c7.473,0,14.1-5.21,14.1-13.577V-36.983h-8.263V-14.3c0,4.579-2.894,6.368-5.841,6.368-3,0-5.894-1.789-5.894-6.368V-36.983h-8.263v23.314c0,8.367,6.684,13.577,14.157,13.577" fill="#303030"/></g></g></svg>